<?xml version="1.0" encoding="utf-8"?>
<!-- Generator: Adobe Illustrator 26.3.1, SVG Export Plug-In . SVG Version: 6.00 Build 0)  -->
<svg version="1.1" id="Capa_1" xmlns="http://www.w3.org/2000/svg" xmlns:xlink="http://www.w3.org/1999/xlink" x="0px" y="0px"
	 viewBox="0 0 512 512" style="enable-background:new 0 0 512 512;" xml:space="preserve">
<path d="M0,365.1c0-15.8,0-31.6,0-47.3c0.9-0.6,0.6-1.5,0.6-2.3c1.5-24.7,5-49.1,10.7-73.3C24,188.4,46.7,139,77,93
	c0.8-1.2,1.8-2,3.1-2.6c32.4-14.9,66.1-25.5,101.2-31.9c2.2-0.4,3,0.2,3.9,2c4.1,7.7,8,15.5,11.4,23.6c0.7,1.7,1.5,2.1,3.3,1.9
	c8-1.1,16.1-2.2,24.1-2.8c29.5-2.5,58.8-1.4,88,2.8c2,0.3,2.8-0.3,3.5-2c3.3-8.1,7.3-15.9,11.3-23.6c0.9-1.7,1.7-2.1,3.7-1.8
	c35,6.4,68.6,16.9,100.9,31.8c1.6,0.7,2.8,1.8,3.7,3.3c11.6,17.5,22.1,35.7,31.4,54.5c25,50.5,39.7,103.9,44,160.1
	c2,25.9,1.8,51.8-0.5,77.6c-0.2,1.7-1,2.7-2.2,3.6c-38.2,28.3-79.8,49.7-125.1,64.1c-2,0.6-3,0.2-4.1-1.4
	c-9.4-13.1-17.6-26.9-25.1-41.2c-1-1.9-0.6-2.4,1.2-3.2c6.3-2.6,12.6-5.2,18.8-8.1c7.7-3.6,15.2-7.6,22.5-12.3
	c-2.4-1.9-4.8-3.4-6.7-5.4c-2.6-2.7-5-2.6-8.4-1.1c-33.8,15.6-69.4,24.8-106.6,27c-33.3,2-66-1.4-98.1-10.5
	c-16.1-4.5-31.8-10.3-47-17.3c-1.2-0.5-2.4-1.6-3.8-0.4c-3.1,2.5-6.2,5-9.5,7.7c1.2,0.7,2.1,1.3,3,1.9c12.1,7.2,24.8,13.2,37.9,18.3
	c2.1,0.8,2.4,1.5,1.3,3.6c-7.3,14-15.4,27.5-24.5,40.4c-1.5,2.1-2.7,2.6-5.2,1.8C84.1,439,43.2,418,5.6,390.4
	c-2.4-1.8-3.8-3.5-3.8-6.7C1.7,378,1,372.4,0.6,366.7C0.6,366.1,0.7,365.4,0,365.1z M295,271.6c0.2,16.9,3.4,27.1,10.3,37.1
	c14.8,21.5,42.7,25.7,62.7,9.6c25.4-20.5,25.5-64.1,0.3-85c-14.7-12.2-34.8-13.4-50.5-2.7C302,241.3,295.7,256.9,295,271.6z
	 M217,278.3c-0.2-15.8-3.9-28.3-12.9-39c-16.5-19.6-44.4-21.2-62.9-3.5c-22.2,21.2-21.6,60.7,1.3,81.2c15.1,13.5,35.5,15.2,52.1,3.7
	C210,310,216.3,294.4,217,278.3z"/>
</svg>
